<mxfile host="app.diagrams.net" agent="Mozilla/5.0 (Windows NT 10.0; Win64; x64) AppleWebKit/537.36 (KHTML, like Gecko) Chrome/140.0.0.0 Safari/537.36" version="28.2.5">
  <diagram name="Pagina-1" id="-XG3NWOHJ_3-eHmlm58t">
    <mxGraphModel dx="1896" dy="1022" grid="1" gridSize="10" guides="1" tooltips="1" connect="1" arrows="1" fold="1" page="1" pageScale="1" pageWidth="827" pageHeight="1169" math="0" shadow="0">
      <root>
        <mxCell id="0" />
        <mxCell id="1" parent="0" />
        <mxCell id="8JB6PZW7fWWFTnTKiGVh-1" value="Client" style="shape=umlActor;verticalLabelPosition=bottom;verticalAlign=top;html=1;" vertex="1" parent="1">
          <mxGeometry x="80" y="60" width="30" height="60" as="geometry" />
        </mxCell>
        <mxCell id="8JB6PZW7fWWFTnTKiGVh-2" value="" style="endArrow=none;dashed=1;html=1;dashPattern=1 3;strokeWidth=2;rounded=0;" edge="1" parent="1">
          <mxGeometry width="50" height="50" relative="1" as="geometry">
            <mxPoint x="60" y="3390" as="sourcePoint" />
            <mxPoint x="90" y="150" as="targetPoint" />
          </mxGeometry>
        </mxCell>
        <mxCell id="8JB6PZW7fWWFTnTKiGVh-3" value="&lt;font style=&quot;font-size: 12px;&quot;&gt;1 http post request: creaDipendente(dipendenteRequest request)&lt;/font&gt;" style="html=1;verticalAlign=bottom;startArrow=oval;startFill=1;endArrow=block;startSize=8;curved=0;rounded=0;strokeWidth=1;jumpSize=14;" edge="1" parent="1">
          <mxGeometry x="-0.0459" width="60" relative="1" as="geometry">
            <mxPoint x="100" y="89.5" as="sourcePoint" />
            <mxPoint x="645" y="89.5" as="targetPoint" />
            <mxPoint as="offset" />
          </mxGeometry>
        </mxCell>
        <mxCell id="8JB6PZW7fWWFTnTKiGVh-4" value="AgenziaImmobiliareController" style="shape=umlLifeline;perimeter=lifelinePerimeter;whiteSpace=wrap;html=1;container=1;dropTarget=0;collapsible=0;recursiveResize=0;outlineConnect=0;portConstraint=eastwest;newEdgeStyle={&quot;curved&quot;:0,&quot;rounded&quot;:0};" vertex="1" parent="1">
          <mxGeometry x="560" y="10" width="180" height="3330" as="geometry" />
        </mxCell>
        <mxCell id="8JB6PZW7fWWFTnTKiGVh-5" value="" style="html=1;points=[[0,0,0,0,5],[0,1,0,0,-5],[1,0,0,0,5],[1,1,0,0,-5]];perimeter=orthogonalPerimeter;outlineConnect=0;targetShapes=umlLifeline;portConstraint=eastwest;newEdgeStyle={&quot;curved&quot;:0,&quot;rounded&quot;:0};" vertex="1" parent="8JB6PZW7fWWFTnTKiGVh-4">
          <mxGeometry x="85" y="60" width="10" height="2920" as="geometry" />
        </mxCell>
        <mxCell id="8JB6PZW7fWWFTnTKiGVh-6" value="PropostaService" style="shape=umlLifeline;perimeter=lifelinePerimeter;whiteSpace=wrap;html=1;container=1;dropTarget=0;collapsible=0;recursiveResize=0;outlineConnect=0;portConstraint=eastwest;newEdgeStyle={&quot;curved&quot;:0,&quot;rounded&quot;:0};" vertex="1" parent="1">
          <mxGeometry x="1000" y="10" width="100" height="3360" as="geometry" />
        </mxCell>
        <mxCell id="8JB6PZW7fWWFTnTKiGVh-7" value="" style="html=1;points=[[0,0,0,0,5],[0,1,0,0,-5],[1,0,0,0,5],[1,1,0,0,-5]];perimeter=orthogonalPerimeter;outlineConnect=0;targetShapes=umlLifeline;portConstraint=eastwest;newEdgeStyle={&quot;curved&quot;:0,&quot;rounded&quot;:0};" vertex="1" parent="8JB6PZW7fWWFTnTKiGVh-6">
          <mxGeometry x="45" y="60" width="10" height="3220" as="geometry" />
        </mxCell>
        <mxCell id="8JB6PZW7fWWFTnTKiGVh-8" value="2: aggiungiDipendente(request)" style="html=1;verticalAlign=bottom;endArrow=block;curved=0;rounded=0;" edge="1" parent="1" target="8JB6PZW7fWWFTnTKiGVh-7">
          <mxGeometry width="80" relative="1" as="geometry">
            <mxPoint x="660" y="120" as="sourcePoint" />
            <mxPoint x="1040" y="120" as="targetPoint" />
          </mxGeometry>
        </mxCell>
        <mxCell id="8JB6PZW7fWWFTnTKiGVh-9" value="UserContex" style="shape=umlLifeline;perimeter=lifelinePerimeter;whiteSpace=wrap;html=1;container=1;dropTarget=0;collapsible=0;recursiveResize=0;outlineConnect=0;portConstraint=eastwest;newEdgeStyle={&quot;curved&quot;:0,&quot;rounded&quot;:0};" vertex="1" parent="1">
          <mxGeometry x="1370" y="10" width="110" height="3350" as="geometry" />
        </mxCell>
        <mxCell id="8JB6PZW7fWWFTnTKiGVh-10" value="" style="html=1;points=[[0,0,0,0,5],[0,1,0,0,-5],[1,0,0,0,5],[1,1,0,0,-5]];perimeter=orthogonalPerimeter;outlineConnect=0;targetShapes=umlLifeline;portConstraint=eastwest;newEdgeStyle={&quot;curved&quot;:0,&quot;rounded&quot;:0};" vertex="1" parent="8JB6PZW7fWWFTnTKiGVh-9">
          <mxGeometry x="50" y="50" width="10" height="2600" as="geometry" />
        </mxCell>
        <mxCell id="8JB6PZW7fWWFTnTKiGVh-11" value="3: getUserCurrent()" style="html=1;verticalAlign=bottom;endArrow=block;curved=0;rounded=0;" edge="1" parent="1" target="8JB6PZW7fWWFTnTKiGVh-9">
          <mxGeometry x="-0.5714" width="80" relative="1" as="geometry">
            <mxPoint x="1060" y="160" as="sourcePoint" />
            <mxPoint x="1340" y="160" as="targetPoint" />
            <mxPoint as="offset" />
          </mxGeometry>
        </mxCell>
        <mxCell id="8JB6PZW7fWWFTnTKiGVh-12" value="AgenziaImmobiliareRepository" style="shape=umlLifeline;perimeter=lifelinePerimeter;whiteSpace=wrap;html=1;container=1;dropTarget=0;collapsible=0;recursiveResize=0;outlineConnect=0;portConstraint=eastwest;newEdgeStyle={&quot;curved&quot;:0,&quot;rounded&quot;:0};" vertex="1" parent="1">
          <mxGeometry x="1770" y="10" width="190" height="3360" as="geometry" />
        </mxCell>
        <mxCell id="8JB6PZW7fWWFTnTKiGVh-13" value="" style="html=1;points=[[0,0,0,0,5],[0,1,0,0,-5],[1,0,0,0,5],[1,1,0,0,-5]];perimeter=orthogonalPerimeter;outlineConnect=0;targetShapes=umlLifeline;portConstraint=eastwest;newEdgeStyle={&quot;curved&quot;:0,&quot;rounded&quot;:0};" vertex="1" parent="8JB6PZW7fWWFTnTKiGVh-12">
          <mxGeometry x="90" y="50" width="10" height="2620" as="geometry" />
        </mxCell>
        <mxCell id="8JB6PZW7fWWFTnTKiGVh-14" value="6: findAgenziaImmobiliareByDipendentiContains(manager)" style="html=1;verticalAlign=bottom;endArrow=block;curved=0;rounded=0;" edge="1" parent="1" source="8JB6PZW7fWWFTnTKiGVh-7">
          <mxGeometry x="-0.6072" width="80" relative="1" as="geometry">
            <mxPoint x="1060" y="430" as="sourcePoint" />
            <mxPoint x="1860" y="430" as="targetPoint" />
            <mxPoint as="offset" />
            <Array as="points">
              <mxPoint x="1470.33" y="430" />
            </Array>
          </mxGeometry>
        </mxCell>
        <mxCell id="8JB6PZW7fWWFTnTKiGVh-15" value="5: return manager" style="html=1;verticalAlign=bottom;endArrow=open;dashed=1;endSize=8;curved=0;rounded=0;" edge="1" parent="1" source="8JB6PZW7fWWFTnTKiGVh-10">
          <mxGeometry x="-0.6558" relative="1" as="geometry">
            <mxPoint x="1340" y="310" as="sourcePoint" />
            <mxPoint x="1060" y="310" as="targetPoint" />
            <mxPoint as="offset" />
          </mxGeometry>
        </mxCell>
        <mxCell id="8JB6PZW7fWWFTnTKiGVh-16" value="4: User user: retrieveUserFromSecurityContex()" style="html=1;verticalAlign=bottom;endArrow=block;curved=0;rounded=0;" edge="1" parent="1" source="8JB6PZW7fWWFTnTKiGVh-10">
          <mxGeometry x="0.0612" y="55" width="80" relative="1" as="geometry">
            <mxPoint x="1435" y="190" as="sourcePoint" />
            <mxPoint x="1430" y="270" as="targetPoint" />
            <Array as="points">
              <mxPoint x="1515" y="190" />
              <mxPoint x="1515" y="270" />
            </Array>
            <mxPoint as="offset" />
          </mxGeometry>
        </mxCell>
        <mxCell id="8JB6PZW7fWWFTnTKiGVh-18" value="7: query per trovare l&#39;agenzia" style="html=1;verticalAlign=bottom;endArrow=block;curved=0;rounded=0;" edge="1" parent="1">
          <mxGeometry x="0.0819" y="25" width="80" relative="1" as="geometry">
            <mxPoint x="1870" y="460" as="sourcePoint" />
            <mxPoint x="1870" y="540" as="targetPoint" />
            <Array as="points">
              <mxPoint x="1955" y="460" />
              <mxPoint x="1955" y="540" />
            </Array>
            <mxPoint as="offset" />
          </mxGeometry>
        </mxCell>
        <mxCell id="8JB6PZW7fWWFTnTKiGVh-19" value="8: return agenziaImmobilaire" style="html=1;verticalAlign=bottom;endArrow=open;dashed=1;endSize=8;curved=0;rounded=0;" edge="1" parent="1" target="8JB6PZW7fWWFTnTKiGVh-6">
          <mxGeometry x="-0.7779" relative="1" as="geometry">
            <mxPoint x="1860" y="600" as="sourcePoint" />
            <mxPoint x="1780" y="600" as="targetPoint" />
            <mxPoint as="offset" />
          </mxGeometry>
        </mxCell>
        <mxCell id="8JB6PZW7fWWFTnTKiGVh-20" value="&lt;b&gt;opt&lt;/b&gt;" style="shape=umlFrame;whiteSpace=wrap;html=1;pointerEvents=0;" vertex="1" parent="1">
          <mxGeometry x="960" y="630" width="430" height="210" as="geometry" />
        </mxCell>
        <mxCell id="8JB6PZW7fWWFTnTKiGVh-21" value="[agenziaImmobiliare == null]" style="text;align=center;fontStyle=1;verticalAlign=middle;spacingLeft=3;spacingRight=3;strokeColor=none;rotatable=0;points=[[0,0.5],[1,0.5]];portConstraint=eastwest;html=1;" vertex="1" parent="1">
          <mxGeometry x="1070" y="650" width="161" as="geometry" />
        </mxCell>
        <mxCell id="8JB6PZW7fWWFTnTKiGVh-22" value="IllegalArgumentException" style="shape=umlLifeline;perimeter=lifelinePerimeter;whiteSpace=wrap;html=1;container=1;dropTarget=0;collapsible=0;recursiveResize=0;outlineConnect=0;portConstraint=eastwest;newEdgeStyle={&quot;curved&quot;:0,&quot;rounded&quot;:0};" vertex="1" parent="1">
          <mxGeometry x="2050" y="700" width="190" height="230" as="geometry" />
        </mxCell>
        <mxCell id="8JB6PZW7fWWFTnTKiGVh-23" value="" style="html=1;points=[[0,0,0,0,5],[0,1,0,0,-5],[1,0,0,0,5],[1,1,0,0,-5]];perimeter=orthogonalPerimeter;outlineConnect=0;targetShapes=umlLifeline;portConstraint=eastwest;newEdgeStyle={&quot;curved&quot;:0,&quot;rounded&quot;:0};" vertex="1" parent="8JB6PZW7fWWFTnTKiGVh-22">
          <mxGeometry x="90" y="50" width="10" height="100" as="geometry" />
        </mxCell>
        <mxCell id="8JB6PZW7fWWFTnTKiGVh-24" value="8.2: &amp;lt;&amp;lt;throw&amp;gt;&amp;gt;&amp;nbsp;" style="html=1;verticalAlign=bottom;endArrow=block;curved=0;rounded=0;exitX=1.5;exitY=0.244;exitDx=0;exitDy=0;exitPerimeter=0;" edge="1" parent="1">
          <mxGeometry x="-0.8586" width="80" relative="1" as="geometry">
            <mxPoint x="1060" y="1000" as="sourcePoint" />
            <mxPoint x="2050" y="1000.31" as="targetPoint" />
            <mxPoint x="1" as="offset" />
          </mxGeometry>
        </mxCell>
        <mxCell id="8JB6PZW7fWWFTnTKiGVh-25" value="8.1.2 exception message: &quot;L&#39;utente non è dipendente di nessuna agenziaImmobiliare&quot;" style="html=1;verticalAlign=bottom;endArrow=open;dashed=1;endSize=8;curved=0;rounded=0;" edge="1" parent="1" target="8JB6PZW7fWWFTnTKiGVh-7">
          <mxGeometry x="-0.5945" relative="1" as="geometry">
            <mxPoint x="2140" y="780" as="sourcePoint" />
            <mxPoint x="2060" y="780" as="targetPoint" />
            <mxPoint as="offset" />
          </mxGeometry>
        </mxCell>
        <mxCell id="8JB6PZW7fWWFTnTKiGVh-26" value="exception message: &quot;L&#39;utente non è dipendente di nessuna agenzia immobiliare&quot;" style="html=1;verticalAlign=bottom;endArrow=open;dashed=1;endSize=8;curved=0;rounded=0;" edge="1" parent="1" target="8JB6PZW7fWWFTnTKiGVh-4">
          <mxGeometry x="-0.0505" relative="1" as="geometry">
            <mxPoint x="1050" y="814.23" as="sourcePoint" />
            <mxPoint x="970" y="814.23" as="targetPoint" />
            <mxPoint as="offset" />
          </mxGeometry>
        </mxCell>
        <mxCell id="8JB6PZW7fWWFTnTKiGVh-27" value="8.1.4: http error: &quot;L&#39;utente non è dipendente di nessuna agenzia immobiliare&quot;" style="html=1;verticalAlign=bottom;endArrow=open;dashed=1;endSize=8;curved=0;rounded=0;" edge="1" parent="1">
          <mxGeometry x="-0.3075" relative="1" as="geometry">
            <mxPoint x="650" y="840.23" as="sourcePoint" />
            <mxPoint x="72.38095238095238" y="840" as="targetPoint" />
            <mxPoint as="offset" />
          </mxGeometry>
        </mxCell>
        <mxCell id="8JB6PZW7fWWFTnTKiGVh-28" value="&lt;b&gt;opt&lt;/b&gt;" style="shape=umlFrame;whiteSpace=wrap;html=1;pointerEvents=0;" vertex="1" parent="1">
          <mxGeometry x="960" y="910" width="430" height="260" as="geometry" />
        </mxCell>
        <mxCell id="8JB6PZW7fWWFTnTKiGVh-29" value="[request.ruolo== null || requet.ruolo == &quot;&quot;]" style="text;align=center;fontStyle=1;verticalAlign=middle;spacingLeft=3;spacingRight=3;strokeColor=none;rotatable=0;points=[[0,0.5],[1,0.5]];portConstraint=eastwest;html=1;" vertex="1" parent="1">
          <mxGeometry x="1080" y="930" width="220" as="geometry" />
        </mxCell>
        <mxCell id="8JB6PZW7fWWFTnTKiGVh-30" value="IllegalArgumentException" style="shape=umlLifeline;perimeter=lifelinePerimeter;whiteSpace=wrap;html=1;container=1;dropTarget=0;collapsible=0;recursiveResize=0;outlineConnect=0;portConstraint=eastwest;newEdgeStyle={&quot;curved&quot;:0,&quot;rounded&quot;:0};" vertex="1" parent="1">
          <mxGeometry x="2050" y="980" width="190" height="230" as="geometry" />
        </mxCell>
        <mxCell id="8JB6PZW7fWWFTnTKiGVh-31" value="" style="html=1;points=[[0,0,0,0,5],[0,1,0,0,-5],[1,0,0,0,5],[1,1,0,0,-5]];perimeter=orthogonalPerimeter;outlineConnect=0;targetShapes=umlLifeline;portConstraint=eastwest;newEdgeStyle={&quot;curved&quot;:0,&quot;rounded&quot;:0};" vertex="1" parent="8JB6PZW7fWWFTnTKiGVh-30">
          <mxGeometry x="90" y="50" width="10" height="100" as="geometry" />
        </mxCell>
        <mxCell id="8JB6PZW7fWWFTnTKiGVh-32" value="8.2.2 exception message: &quot;Ruolo inesistente&quot;" style="html=1;verticalAlign=bottom;endArrow=open;dashed=1;endSize=8;curved=0;rounded=0;" edge="1" parent="1">
          <mxGeometry x="-0.5945" relative="1" as="geometry">
            <mxPoint x="2145" y="1059.29" as="sourcePoint" />
            <mxPoint x="1060" y="1059.29" as="targetPoint" />
            <mxPoint as="offset" />
          </mxGeometry>
        </mxCell>
        <mxCell id="8JB6PZW7fWWFTnTKiGVh-33" value="8.3.3: exception message: &quot;ruolo inesistente&quot;" style="html=1;verticalAlign=bottom;endArrow=open;dashed=1;endSize=8;curved=0;rounded=0;" edge="1" parent="1">
          <mxGeometry x="-0.3466" relative="1" as="geometry">
            <mxPoint x="1051" y="1100.23" as="sourcePoint" />
            <mxPoint x="650" y="1100" as="targetPoint" />
            <mxPoint as="offset" />
          </mxGeometry>
        </mxCell>
        <mxCell id="8JB6PZW7fWWFTnTKiGVh-34" value="8.2.4: http error: &quot;ruolo inesistente&quot;" style="html=1;verticalAlign=bottom;endArrow=open;dashed=1;endSize=8;curved=0;rounded=0;" edge="1" parent="1">
          <mxGeometry x="-0.3075" relative="1" as="geometry">
            <mxPoint x="647.6190476190476" y="1160.23" as="sourcePoint" />
            <mxPoint x="70" y="1160" as="targetPoint" />
            <mxPoint as="offset" />
          </mxGeometry>
        </mxCell>
        <mxCell id="8JB6PZW7fWWFTnTKiGVh-35" value="&lt;b&gt;opt&lt;/b&gt;" style="shape=umlFrame;whiteSpace=wrap;html=1;pointerEvents=0;" vertex="1" parent="1">
          <mxGeometry x="960" y="1280" width="430" height="260" as="geometry" />
        </mxCell>
        <mxCell id="8JB6PZW7fWWFTnTKiGVh-36" value="[request.ruolo!= &quot;MANAGER&quot; || requet.ruolo != &quot;AGENT&quot;]" style="text;align=center;fontStyle=1;verticalAlign=middle;spacingLeft=3;spacingRight=3;strokeColor=none;rotatable=0;points=[[0,0.5],[1,0.5]];portConstraint=eastwest;html=1;" vertex="1" parent="1">
          <mxGeometry x="1045" y="1300" width="290" as="geometry" />
        </mxCell>
        <mxCell id="8JB6PZW7fWWFTnTKiGVh-37" value="8.3: &amp;lt;&amp;lt;throw&amp;gt;&amp;gt;&amp;nbsp;" style="html=1;verticalAlign=bottom;endArrow=block;curved=0;rounded=0;exitX=1.5;exitY=0.244;exitDx=0;exitDy=0;exitPerimeter=0;" edge="1" parent="1">
          <mxGeometry x="-0.8586" width="80" relative="1" as="geometry">
            <mxPoint x="1060" y="1364.23" as="sourcePoint" />
            <mxPoint x="2050" y="1364.54" as="targetPoint" />
            <mxPoint x="1" as="offset" />
          </mxGeometry>
        </mxCell>
        <mxCell id="8JB6PZW7fWWFTnTKiGVh-38" value="IllegalArgumentException" style="shape=umlLifeline;perimeter=lifelinePerimeter;whiteSpace=wrap;html=1;container=1;dropTarget=0;collapsible=0;recursiveResize=0;outlineConnect=0;portConstraint=eastwest;newEdgeStyle={&quot;curved&quot;:0,&quot;rounded&quot;:0};" vertex="1" parent="1">
          <mxGeometry x="2050" y="1340" width="190" height="230" as="geometry" />
        </mxCell>
        <mxCell id="8JB6PZW7fWWFTnTKiGVh-39" value="" style="html=1;points=[[0,0,0,0,5],[0,1,0,0,-5],[1,0,0,0,5],[1,1,0,0,-5]];perimeter=orthogonalPerimeter;outlineConnect=0;targetShapes=umlLifeline;portConstraint=eastwest;newEdgeStyle={&quot;curved&quot;:0,&quot;rounded&quot;:0};" vertex="1" parent="8JB6PZW7fWWFTnTKiGVh-38">
          <mxGeometry x="90" y="50" width="10" height="100" as="geometry" />
        </mxCell>
        <mxCell id="8JB6PZW7fWWFTnTKiGVh-40" value="8.3.2 exception message: &quot;Ruolo non valido&quot;" style="html=1;verticalAlign=bottom;endArrow=open;dashed=1;endSize=8;curved=0;rounded=0;" edge="1" parent="1">
          <mxGeometry x="-0.7512" y="1" relative="1" as="geometry">
            <mxPoint x="2145" y="1409.29" as="sourcePoint" />
            <mxPoint x="1060" y="1409.29" as="targetPoint" />
            <mxPoint as="offset" />
          </mxGeometry>
        </mxCell>
        <mxCell id="8JB6PZW7fWWFTnTKiGVh-41" value="8.3.3: exception message: &quot;ruolo non valido&quot;" style="html=1;verticalAlign=bottom;endArrow=open;dashed=1;endSize=8;curved=0;rounded=0;" edge="1" parent="1">
          <mxGeometry x="-0.3466" relative="1" as="geometry">
            <mxPoint x="1045" y="1440.23" as="sourcePoint" />
            <mxPoint x="644" y="1440" as="targetPoint" />
            <mxPoint as="offset" />
          </mxGeometry>
        </mxCell>
        <mxCell id="8JB6PZW7fWWFTnTKiGVh-42" value="8.3.4: http error: &quot;ruolo non valido&quot;" style="html=1;verticalAlign=bottom;endArrow=open;dashed=1;endSize=8;curved=0;rounded=0;" edge="1" parent="1">
          <mxGeometry x="-0.6274" relative="1" as="geometry">
            <mxPoint x="647.6190476190476" y="1480.23" as="sourcePoint" />
            <mxPoint x="70" y="1480" as="targetPoint" />
            <mxPoint as="offset" />
          </mxGeometry>
        </mxCell>
        <mxCell id="8JB6PZW7fWWFTnTKiGVh-43" value="&lt;b&gt;opt&lt;/b&gt;" style="shape=umlFrame;whiteSpace=wrap;html=1;pointerEvents=0;" vertex="1" parent="1">
          <mxGeometry x="950" y="1660" width="430" height="260" as="geometry" />
        </mxCell>
        <mxCell id="8JB6PZW7fWWFTnTKiGVh-44" value="[if requet.nome == null || isBlack(request.nome)]" style="text;align=center;fontStyle=1;verticalAlign=middle;spacingLeft=3;spacingRight=3;strokeColor=none;rotatable=0;points=[[0,0.5],[1,0.5]];portConstraint=eastwest;html=1;" vertex="1" parent="1">
          <mxGeometry x="1010" y="1680" width="290" as="geometry" />
        </mxCell>
        <mxCell id="8JB6PZW7fWWFTnTKiGVh-45" value="IllegalArgumentException" style="shape=umlLifeline;perimeter=lifelinePerimeter;whiteSpace=wrap;html=1;container=1;dropTarget=0;collapsible=0;recursiveResize=0;outlineConnect=0;portConstraint=eastwest;newEdgeStyle={&quot;curved&quot;:0,&quot;rounded&quot;:0};" vertex="1" parent="1">
          <mxGeometry x="2050" y="1720" width="190" height="230" as="geometry" />
        </mxCell>
        <mxCell id="8JB6PZW7fWWFTnTKiGVh-46" value="" style="html=1;points=[[0,0,0,0,5],[0,1,0,0,-5],[1,0,0,0,5],[1,1,0,0,-5]];perimeter=orthogonalPerimeter;outlineConnect=0;targetShapes=umlLifeline;portConstraint=eastwest;newEdgeStyle={&quot;curved&quot;:0,&quot;rounded&quot;:0};" vertex="1" parent="8JB6PZW7fWWFTnTKiGVh-45">
          <mxGeometry x="90" y="50" width="10" height="100" as="geometry" />
        </mxCell>
        <mxCell id="8JB6PZW7fWWFTnTKiGVh-47" value="8.4: &amp;lt;&amp;lt;throw&amp;gt;&amp;gt;&amp;nbsp;" style="html=1;verticalAlign=bottom;endArrow=block;curved=0;rounded=0;exitX=1.5;exitY=0.244;exitDx=0;exitDy=0;exitPerimeter=0;" edge="1" parent="1">
          <mxGeometry x="-0.8586" width="80" relative="1" as="geometry">
            <mxPoint x="1060" y="1740" as="sourcePoint" />
            <mxPoint x="2050" y="1740.31" as="targetPoint" />
            <mxPoint x="1" as="offset" />
          </mxGeometry>
        </mxCell>
        <mxCell id="8JB6PZW7fWWFTnTKiGVh-48" value="8.4.2 exception message: &quot;nome vuoto&quot;" style="html=1;verticalAlign=bottom;endArrow=open;dashed=1;endSize=8;curved=0;rounded=0;" edge="1" parent="1">
          <mxGeometry x="-0.7512" y="1" relative="1" as="geometry">
            <mxPoint x="2145" y="1800" as="sourcePoint" />
            <mxPoint x="1060" y="1800" as="targetPoint" />
            <mxPoint as="offset" />
          </mxGeometry>
        </mxCell>
        <mxCell id="8JB6PZW7fWWFTnTKiGVh-49" value="8.4.3: exception message: &quot;nome è vuoto&quot;" style="html=1;verticalAlign=bottom;endArrow=open;dashed=1;endSize=8;curved=0;rounded=0;" edge="1" parent="1">
          <mxGeometry x="-0.3466" relative="1" as="geometry">
            <mxPoint x="1051" y="1834.56" as="sourcePoint" />
            <mxPoint x="650" y="1834.33" as="targetPoint" />
            <mxPoint as="offset" />
          </mxGeometry>
        </mxCell>
        <mxCell id="8JB6PZW7fWWFTnTKiGVh-52" value="8.4.4: http error: &quot;ruolo inesistente&quot;" style="html=1;verticalAlign=bottom;endArrow=open;dashed=1;endSize=8;curved=0;rounded=0;" edge="1" parent="1">
          <mxGeometry x="-0.6274" relative="1" as="geometry">
            <mxPoint x="647.6190476190476" y="1880.23" as="sourcePoint" />
            <mxPoint x="70" y="1880" as="targetPoint" />
            <mxPoint as="offset" />
          </mxGeometry>
        </mxCell>
        <mxCell id="8JB6PZW7fWWFTnTKiGVh-53" value="&lt;b&gt;opt&lt;/b&gt;" style="shape=umlFrame;whiteSpace=wrap;html=1;pointerEvents=0;" vertex="1" parent="1">
          <mxGeometry x="950" y="2120" width="430" height="260" as="geometry" />
        </mxCell>
        <mxCell id="8JB6PZW7fWWFTnTKiGVh-54" value="IllegalArgumentException" style="shape=umlLifeline;perimeter=lifelinePerimeter;whiteSpace=wrap;html=1;container=1;dropTarget=0;collapsible=0;recursiveResize=0;outlineConnect=0;portConstraint=eastwest;newEdgeStyle={&quot;curved&quot;:0,&quot;rounded&quot;:0};" vertex="1" parent="1">
          <mxGeometry x="2050" y="2180" width="190" height="230" as="geometry" />
        </mxCell>
        <mxCell id="8JB6PZW7fWWFTnTKiGVh-55" value="" style="html=1;points=[[0,0,0,0,5],[0,1,0,0,-5],[1,0,0,0,5],[1,1,0,0,-5]];perimeter=orthogonalPerimeter;outlineConnect=0;targetShapes=umlLifeline;portConstraint=eastwest;newEdgeStyle={&quot;curved&quot;:0,&quot;rounded&quot;:0};" vertex="1" parent="8JB6PZW7fWWFTnTKiGVh-54">
          <mxGeometry x="90" y="50" width="10" height="100" as="geometry" />
        </mxCell>
        <mxCell id="8JB6PZW7fWWFTnTKiGVh-56" value="8.5: &amp;lt;&amp;lt;throw&amp;gt;&amp;gt;&amp;nbsp;" style="html=1;verticalAlign=bottom;endArrow=block;curved=0;rounded=0;exitX=1.5;exitY=0.244;exitDx=0;exitDy=0;exitPerimeter=0;" edge="1" parent="1">
          <mxGeometry x="-0.8586" width="80" relative="1" as="geometry">
            <mxPoint x="1060" y="2200" as="sourcePoint" />
            <mxPoint x="2050" y="2200.31" as="targetPoint" />
            <mxPoint x="1" as="offset" />
          </mxGeometry>
        </mxCell>
        <mxCell id="8JB6PZW7fWWFTnTKiGVh-57" value="8.5.2 exception message: &quot;cognome vuoto&quot;" style="html=1;verticalAlign=bottom;endArrow=open;dashed=1;endSize=8;curved=0;rounded=0;" edge="1" parent="1">
          <mxGeometry x="-0.7512" y="1" relative="1" as="geometry">
            <mxPoint x="2145" y="2249.23" as="sourcePoint" />
            <mxPoint x="1060" y="2249.23" as="targetPoint" />
            <mxPoint as="offset" />
          </mxGeometry>
        </mxCell>
        <mxCell id="8JB6PZW7fWWFTnTKiGVh-58" value="8.5.3: exception message: &quot;cognome vuoto&quot;" style="html=1;verticalAlign=bottom;endArrow=open;dashed=1;endSize=8;curved=0;rounded=0;" edge="1" parent="1">
          <mxGeometry x="-0.3466" relative="1" as="geometry">
            <mxPoint x="1051" y="2280.23" as="sourcePoint" />
            <mxPoint x="650" y="2280" as="targetPoint" />
            <mxPoint as="offset" />
          </mxGeometry>
        </mxCell>
        <mxCell id="8JB6PZW7fWWFTnTKiGVh-59" value="8.5.4: http error: &quot;cognome vuoto&quot;" style="html=1;verticalAlign=bottom;endArrow=open;dashed=1;endSize=8;curved=0;rounded=0;" edge="1" parent="1">
          <mxGeometry x="-0.6274" relative="1" as="geometry">
            <mxPoint x="647.6190476190476" y="2320.23" as="sourcePoint" />
            <mxPoint x="70" y="2320" as="targetPoint" />
            <mxPoint as="offset" />
          </mxGeometry>
        </mxCell>
        <mxCell id="8JB6PZW7fWWFTnTKiGVh-60" value="&lt;b&gt;opt&lt;/b&gt;" style="shape=umlFrame;whiteSpace=wrap;html=1;pointerEvents=0;" vertex="1" parent="1">
          <mxGeometry x="950" y="2560" width="430" height="260" as="geometry" />
        </mxCell>
        <mxCell id="8JB6PZW7fWWFTnTKiGVh-61" value="[if requet.cognome== null || isBlack(request.cognome)]" style="text;align=center;fontStyle=1;verticalAlign=middle;spacingLeft=3;spacingRight=3;strokeColor=none;rotatable=0;points=[[0,0.5],[1,0.5]];portConstraint=eastwest;html=1;" vertex="1" parent="1">
          <mxGeometry x="1050" y="2140" width="290" as="geometry" />
        </mxCell>
        <mxCell id="8JB6PZW7fWWFTnTKiGVh-62" value="[if agenziaImmobiliare.dominio== null&amp;nbsp;&lt;div&gt;||&amp;nbsp;&lt;/div&gt;&lt;div&gt;isBlack(agenziaImmobiliare.dominio)]&lt;/div&gt;" style="text;align=center;fontStyle=1;verticalAlign=middle;spacingLeft=3;spacingRight=3;strokeColor=none;rotatable=0;points=[[0,0.5],[1,0.5]];portConstraint=eastwest;html=1;" vertex="1" parent="1">
          <mxGeometry x="1012.5" y="2570" width="325" height="60" as="geometry" />
        </mxCell>
        <mxCell id="8JB6PZW7fWWFTnTKiGVh-63" value="IllegalArgumentException" style="shape=umlLifeline;perimeter=lifelinePerimeter;whiteSpace=wrap;html=1;container=1;dropTarget=0;collapsible=0;recursiveResize=0;outlineConnect=0;portConstraint=eastwest;newEdgeStyle={&quot;curved&quot;:0,&quot;rounded&quot;:0};" vertex="1" parent="1">
          <mxGeometry x="2050" y="2670" width="190" height="230" as="geometry" />
        </mxCell>
        <mxCell id="8JB6PZW7fWWFTnTKiGVh-64" value="" style="html=1;points=[[0,0,0,0,5],[0,1,0,0,-5],[1,0,0,0,5],[1,1,0,0,-5]];perimeter=orthogonalPerimeter;outlineConnect=0;targetShapes=umlLifeline;portConstraint=eastwest;newEdgeStyle={&quot;curved&quot;:0,&quot;rounded&quot;:0};" vertex="1" parent="8JB6PZW7fWWFTnTKiGVh-63">
          <mxGeometry x="90" y="50" width="10" height="100" as="geometry" />
        </mxCell>
        <mxCell id="8JB6PZW7fWWFTnTKiGVh-65" value="8.6: &amp;lt;&amp;lt;throw&amp;gt;&amp;gt;&amp;nbsp;" style="html=1;verticalAlign=bottom;endArrow=block;curved=0;rounded=0;exitX=1.5;exitY=0.244;exitDx=0;exitDy=0;exitPerimeter=0;" edge="1" parent="1">
          <mxGeometry x="-0.8586" width="80" relative="1" as="geometry">
            <mxPoint x="1060" y="2689" as="sourcePoint" />
            <mxPoint x="2050" y="2689.31" as="targetPoint" />
            <mxPoint x="1" as="offset" />
          </mxGeometry>
        </mxCell>
        <mxCell id="8JB6PZW7fWWFTnTKiGVh-66" value="8.6.2 exception message: &quot;aliasAgenzia vuoto&quot;" style="html=1;verticalAlign=bottom;endArrow=open;dashed=1;endSize=8;curved=0;rounded=0;" edge="1" parent="1">
          <mxGeometry x="-0.7512" y="1" relative="1" as="geometry">
            <mxPoint x="2135" y="2760" as="sourcePoint" />
            <mxPoint x="1050" y="2760" as="targetPoint" />
            <mxPoint as="offset" />
          </mxGeometry>
        </mxCell>
        <mxCell id="8JB6PZW7fWWFTnTKiGVh-67" value="8.6.3: exception message: &quot;aliasAgenzia vuoto&quot;" style="html=1;verticalAlign=bottom;endArrow=open;dashed=1;endSize=8;curved=0;rounded=0;" edge="1" parent="1">
          <mxGeometry x="-0.3466" relative="1" as="geometry">
            <mxPoint x="1050" y="2790.23" as="sourcePoint" />
            <mxPoint x="649" y="2790" as="targetPoint" />
            <mxPoint as="offset" />
          </mxGeometry>
        </mxCell>
        <mxCell id="8JB6PZW7fWWFTnTKiGVh-68" value="8.6.4: http error: &quot;aliasAgenzia vuoto&quot;" style="html=1;verticalAlign=bottom;endArrow=open;dashed=1;endSize=8;curved=0;rounded=0;" edge="1" parent="1">
          <mxGeometry x="-0.6274" relative="1" as="geometry">
            <mxPoint x="647.6190476190476" y="2860.23" as="sourcePoint" />
            <mxPoint x="70" y="2860" as="targetPoint" />
            <mxPoint as="offset" />
          </mxGeometry>
        </mxCell>
      </root>
    </mxGraphModel>
  </diagram>
</mxfile>
